<?xml version="1.0" encoding="UTF-8"?>
<?xml-stylesheet href="https://cdnjs.cloudflare.com/ajax/libs/font-awesome/6.7.2/css/all.min.css" type="text/css"?>
<svg id="graph-698" width="100%" xmlns="http://www.w3.org/2000/svg" class="flowchart" style="overflow: hidden; max-width: 100%; touch-action: none; user-select: none; -webkit-user-drag: none; -webkit-tap-highlight-color: rgba(0, 0, 0, 0); background-color: rgb(255, 255, 255);" role="graphics-document document" aria-roledescription="flowchart-v2" height="100%" xmlns:xlink="http://www.w3.org/1999/xlink" xmlns:ev="http://www.w3.org/2001/xml-events"><g id="viewport-20260315204435182" class="svg-pan-zoom_viewport" transform="matrix(0.4829905811155656,0,0,0.4829905811155656,60.06247429906363,15.164935311266888)" style="transform: matrix(0.482991, 0, 0, 0.482991, 60.0625, 15.1649);"><style>#graph-698{font-family:"trebuchet ms",verdana,arial,sans-serif;font-size:16px;fill:#333;}@keyframes edge-animation-frame{from{stroke-dashoffset:0;}}@keyframes dash{to{stroke-dashoffset:0;}}#graph-698 .edge-animation-slow{stroke-dasharray:9,5!important;stroke-dashoffset:900;animation:dash 50s linear infinite;stroke-linecap:round;}#graph-698 .edge-animation-fast{stroke-dasharray:9,5!important;stroke-dashoffset:900;animation:dash 20s linear infinite;stroke-linecap:round;}#graph-698 .error-icon{fill:#552222;}#graph-698 .error-text{fill:#552222;stroke:#552222;}#graph-698 .edge-thickness-normal{stroke-width:1px;}#graph-698 .edge-thickness-thick{stroke-width:3.5px;}#graph-698 .edge-pattern-solid{stroke-dasharray:0;}#graph-698 .edge-thickness-invisible{stroke-width:0;fill:none;}#graph-698 .edge-pattern-dashed{stroke-dasharray:3;}#graph-698 .edge-pattern-dotted{stroke-dasharray:2;}#graph-698 .marker{fill:#333333;stroke:#333333;}#graph-698 .marker.cross{stroke:#333333;}#graph-698 svg{font-family:"trebuchet ms",verdana,arial,sans-serif;font-size:16px;}#graph-698 p{margin:0;}#graph-698 .label{font-family:"trebuchet ms",verdana,arial,sans-serif;color:#333;}#graph-698 .cluster-label text{fill:#333;}#graph-698 .cluster-label span{color:#333;}#graph-698 .cluster-label span p{background-color:transparent;}#graph-698 .label text,#graph-698 span{fill:#333;color:#333;}#graph-698 .node rect,#graph-698 .node circle,#graph-698 .node ellipse,#graph-698 .node polygon,#graph-698 .node path{fill:#ECECFF;stroke:#9370DB;stroke-width:1px;}#graph-698 .rough-node .label text,#graph-698 .node .label text,#graph-698 .image-shape .label,#graph-698 .icon-shape .label{text-anchor:middle;}#graph-698 .node .katex path{fill:#000;stroke:#000;stroke-width:1px;}#graph-698 .rough-node .label,#graph-698 .node .label,#graph-698 .image-shape .label,#graph-698 .icon-shape .label{text-align:center;}#graph-698 .node.clickable{cursor:pointer;}#graph-698 .root .anchor path{fill:#333333!important;stroke-width:0;stroke:#333333;}#graph-698 .arrowheadPath{fill:#333333;}#graph-698 .edgePath .path{stroke:#333333;stroke-width:2.0px;}#graph-698 .flowchart-link{stroke:#333333;fill:none;}#graph-698 .edgeLabel{background-color:rgba(232,232,232, 0.8);text-align:center;}#graph-698 .edgeLabel p{background-color:rgba(232,232,232, 0.8);}#graph-698 .edgeLabel rect{opacity:0.5;background-color:rgba(232,232,232, 0.8);fill:rgba(232,232,232, 0.8);}#graph-698 .labelBkg{background-color:rgba(232, 232, 232, 0.5);}#graph-698 .cluster rect{fill:#ffffde;stroke:#aaaa33;stroke-width:1px;}#graph-698 .cluster text{fill:#333;}#graph-698 .cluster span{color:#333;}#graph-698 div.mermaidTooltip{position:absolute;text-align:center;max-width:200px;padding:2px;font-family:"trebuchet ms",verdana,arial,sans-serif;font-size:12px;background:hsl(80, 100%, 96.2745098039%);border:1px solid #aaaa33;border-radius:2px;pointer-events:none;z-index:100;}#graph-698 .flowchartTitleText{text-anchor:middle;font-size:18px;fill:#333;}#graph-698 rect.text{fill:none;stroke-width:0;}#graph-698 .icon-shape,#graph-698 .image-shape{background-color:rgba(232,232,232, 0.8);text-align:center;}#graph-698 .icon-shape p,#graph-698 .image-shape p{background-color:rgba(232,232,232, 0.8);padding:2px;}#graph-698 .icon-shape rect,#graph-698 .image-shape rect{opacity:0.5;background-color:rgba(232,232,232, 0.8);fill:rgba(232,232,232, 0.8);}#graph-698 .label-icon{display:inline-block;height:1em;overflow:visible;vertical-align:-0.125em;}#graph-698 .node .label-icon path{fill:currentColor;stroke:revert;stroke-width:revert;}#graph-698 :root{--mermaid-font-family:"trebuchet ms",verdana,arial,sans-serif;}</style><g><marker id="graph-698_flowchart-v2-pointEnd" class="marker flowchart-v2" viewBox="0 0 10 10" refX="5" refY="5" markerUnits="userSpaceOnUse" markerWidth="8" markerHeight="8" orient="auto"><path d="M 0 0 L 10 5 L 0 10 z" class="arrowMarkerPath" style="stroke-width: 1; stroke-dasharray: 1, 0;"></path></marker><marker id="graph-698_flowchart-v2-pointStart" class="marker flowchart-v2" viewBox="0 0 10 10" refX="4.5" refY="5" markerUnits="userSpaceOnUse" markerWidth="8" markerHeight="8" orient="auto"><path d="M 0 5 L 10 10 L 10 0 z" class="arrowMarkerPath" style="stroke-width: 1; stroke-dasharray: 1, 0;"></path></marker><marker id="graph-698_flowchart-v2-circleEnd" class="marker flowchart-v2" viewBox="0 0 10 10" refX="11" refY="5" markerUnits="userSpaceOnUse" markerWidth="11" markerHeight="11" orient="auto"><circle cx="5" cy="5" r="5" class="arrowMarkerPath" style="stroke-width: 1; stroke-dasharray: 1, 0;"></circle></marker><marker id="graph-698_flowchart-v2-circleStart" class="marker flowchart-v2" viewBox="0 0 10 10" refX="-1" refY="5" markerUnits="userSpaceOnUse" markerWidth="11" markerHeight="11" orient="auto"><circle cx="5" cy="5" r="5" class="arrowMarkerPath" style="stroke-width: 1; stroke-dasharray: 1, 0;"></circle></marker><marker id="graph-698_flowchart-v2-crossEnd" class="marker cross flowchart-v2" viewBox="0 0 11 11" refX="12" refY="5.2" markerUnits="userSpaceOnUse" markerWidth="11" markerHeight="11" orient="auto"><path d="M 1,1 l 9,9 M 10,1 l -9,9" class="arrowMarkerPath" style="stroke-width: 2; stroke-dasharray: 1, 0;"></path></marker><marker id="graph-698_flowchart-v2-crossStart" class="marker cross flowchart-v2" viewBox="0 0 11 11" refX="-1" refY="5.2" markerUnits="userSpaceOnUse" markerWidth="11" markerHeight="11" orient="auto"><path d="M 1,1 l 9,9 M 10,1 l -9,9" class="arrowMarkerPath" style="stroke-width: 2; stroke-dasharray: 1, 0;"></path></marker><g class="root"><g class="clusters"><g class="cluster" id="secondary" data-look="classic"><rect style="" x="8" y="1094" width="864.5" height="152"></rect><g class="cluster-label" transform="translate(364.6015625, 1094)"><foreignObject width="151.296875" height="24"><div xmlns="http://www.w3.org/1999/xhtml" style="display: table-cell; white-space: nowrap; line-height: 1.5; max-width: 200px; text-align: center;"><span class="nodeLabel"><p>Secondary Workflows</p></span></div></foreignObject></g></g><g class="cluster" id="offline" data-look="classic"><rect style="" x="1465.083984375" y="892" width="644.7109375" height="128"></rect><g class="cluster-label" transform="translate(1728.548828125, 892)"><foreignObject width="117.78125" height="24"><div xmlns="http://www.w3.org/1999/xhtml" style="display: table-cell; white-space: nowrap; line-height: 1.5; max-width: 200px; text-align: center;"><span class="nodeLabel"><p>Offline Pipelines</p></span></div></foreignObject></g></g><g class="cluster" id="storage" data-look="classic"><rect style="" x="1469.794921875" y="538" width="640" height="128"></rect><g class="cluster-label" transform="translate(1733.763671875, 538)"><foreignObject width="112.0625" height="24"><div xmlns="http://www.w3.org/1999/xhtml" style="display: table-cell; white-space: nowrap; line-height: 1.5; max-width: 200px; text-align: center;"><span class="nodeLabel"><p>Storage &amp; Audit</p></span></div></foreignObject></g></g><g class="cluster" id="feature_store" data-look="classic"><rect style="" x="892.5" y="1094" width="1144.794921875" height="152"></rect><g class="cluster-label" transform="translate(1415.9208984375, 1094)"><foreignObject width="97.953125" height="24"><div xmlns="http://www.w3.org/1999/xhtml" style="display: table-cell; white-space: nowrap; line-height: 1.5; max-width: 200px; text-align: center;"><span class="nodeLabel"><p>Feature Store</p></span></div></foreignObject></g></g><g class="cluster" id="processing" data-look="classic"><rect style="" x="75.57421875" y="538" width="1369.509765625" height="482"></rect><g class="cluster-label" transform="translate(670.0947265625, 538)"><foreignObject width="180.46875" height="24"><div xmlns="http://www.w3.org/1999/xhtml" style="display: table-cell; white-space: nowrap; line-height: 1.5; max-width: 200px; text-align: center;"><span class="nodeLabel"><p>Stream Processing (Flink)</p></span></div></foreignObject></g></g><g class="cluster" id="ingestion" data-look="classic"><rect style="" x="63.68359375" y="160" width="1424.54296875" height="304"></rect><g class="cluster-label" transform="translate(721.541015625, 160)"><foreignObject width="108.828125" height="24"><div xmlns="http://www.w3.org/1999/xhtml" style="display: table-cell; white-space: nowrap; line-height: 1.5; max-width: 200px; text-align: center;"><span class="nodeLabel"><p>Ingestion Layer</p></span></div></foreignObject></g></g></g><g class="edgePaths"><path d="M606.414,60.268L708.858,70.723C811.302,81.178,1016.19,102.089,1118.634,118.711C1221.078,135.333,1221.078,147.667,1119.298,162.581C1017.519,177.495,813.959,194.99,712.179,203.737L610.399,212.485" id="L_PG_AG_0" class="edge-thickness-normal edge-pattern-solid edge-thickness-normal edge-pattern-solid flowchart-link" style=";" data-edge="true" data-et="edge" data-id="L_PG_AG_0" data-points="W3sieCI6NjA2LjQxNDA2MjUsInkiOjYwLjI2NzcyNzY4NzYxMDgxNX0seyJ4IjoxMjIxLjA3ODEyNSwieSI6MTIzfSx7IngiOjEyMjEuMDc4MTI1LCJ5IjoxNjB9LHsieCI6NjA2LjQxNDA2MjUsInkiOjIxMi44MjcxNzY2ODQxMTcyfV0=" marker-end="url(#graph-698_flowchart-v2-pointEnd)"></path><path d="M606.414,239.35L692.022,249.458C777.63,259.567,948.846,279.783,1034.454,295.392C1120.063,311,1120.063,322,1120.063,327.5L1120.063,333" id="L_AG_KF_0" class="edge-thickness-normal edge-pattern-solid edge-thickness-normal edge-pattern-solid flowchart-link" style=";" data-edge="true" data-et="edge" data-id="L_AG_KF_0" data-points="W3sieCI6NjA2LjQxNDA2MjUsInkiOjIzOS4zNDk5OTQ1Mzc5NzMyM30seyJ4IjoxMTIwLjA2MjUsInkiOjMwMH0seyJ4IjoxMTIwLjA2MjUsInkiOjMzN31d" marker-end="url(#graph-698_flowchart-v2-pointEnd)"></path><path d="M1250.063,423.841L1274.34,430.534C1298.617,437.227,1347.172,450.614,1371.449,463.473C1395.727,476.333,1395.727,488.667,1313.859,501C1231.992,513.333,1068.258,525.667,986.391,535.333C904.523,545,904.523,552,904.523,555.5L904.523,559" id="L_KF_FL_0" class="edge-thickness-normal edge-pattern-solid edge-thickness-normal edge-pattern-solid flowchart-link" style=";" data-edge="true" data-et="edge" data-id="L_KF_FL_0" data-points="W3sieCI6MTI1MC4wNjI1LCJ5Ijo0MjMuODQwNzI1NTIwNzU5NX0seyJ4IjoxMzk1LjcyNjU2MjUsInkiOjQ2NH0seyJ4IjoxMzk1LjcyNjU2MjUsInkiOjUwMX0seyJ4Ijo5MDQuNTIzNDM3NSwieSI6NTM4fSx7IngiOjkwNC41MjM0Mzc1LCJ5Ijo1NjN9XQ==" marker-end="url(#graph-698_flowchart-v2-pointEnd)"></path><path d="M1034.523,619.819L1090.678,627.516C1146.833,635.212,1259.142,650.606,1315.297,664.47C1371.451,678.333,1371.451,690.667,1371.451,709.5C1371.451,728.333,1371.451,753.667,1371.451,779C1371.451,804.333,1371.451,829.667,1371.451,848.5C1371.451,867.333,1371.451,879.667,1371.451,896.5C1371.451,913.333,1371.451,934.667,1371.451,956C1371.451,977.333,1371.451,998.667,1371.451,1015.5C1371.451,1032.333,1371.451,1044.667,1371.451,1057C1371.451,1069.333,1371.451,1081.667,1377.393,1091.64C1383.335,1101.614,1395.219,1109.228,1401.161,1113.035L1407.103,1116.842" id="L_FL_RC_0" class="edge-thickness-normal edge-pattern-solid edge-thickness-normal edge-pattern-solid flowchart-link" style=";" data-edge="true" data-et="edge" data-id="L_FL_RC_0" data-points="W3sieCI6MTAzNC41MjM0Mzc1LCJ5Ijo2MTkuODE4NjAzMTUzMDkxfSx7IngiOjEzNzEuNDUxMTcxODc1LCJ5Ijo2NjZ9LHsieCI6MTM3MS40NTExNzE4NzUsInkiOjcwM30seyJ4IjoxMzcxLjQ1MTE3MTg3NSwieSI6Nzc5fSx7IngiOjEzNzEuNDUxMTcxODc1LCJ5Ijo4NTV9LHsieCI6MTM3MS40NTExNzE4NzUsInkiOjg5Mn0seyJ4IjoxMzcxLjQ1MTE3MTg3NSwieSI6OTU2fSx7IngiOjEzNzEuNDUxMTcxODc1LCJ5IjoxMDIwfSx7IngiOjEzNzEuNDUxMTcxODc1LCJ5IjoxMDU3fSx7IngiOjEzNzEuNDUxMTcxODc1LCJ5IjoxMDk0fSx7IngiOjE0MTAuNDcwNjI2MDI3OTYwNCwieSI6MTExOX1d" marker-end="url(#graph-698_flowchart-v2-pointEnd)"></path><path d="M1034.523,636.917L1052.57,641.764C1070.616,646.612,1106.708,656.306,1124.755,667.32C1142.801,678.333,1142.801,690.667,1142.801,709.5C1142.801,728.333,1142.801,753.667,1142.801,779C1142.801,804.333,1142.801,829.667,1142.801,848.5C1142.801,867.333,1142.801,879.667,1142.801,896.5C1142.801,913.333,1142.801,934.667,1142.801,956C1142.801,977.333,1142.801,998.667,1142.801,1015.5C1142.801,1032.333,1142.801,1044.667,1142.801,1057C1142.801,1069.333,1142.801,1081.667,1144.052,1093.35C1145.303,1105.033,1147.805,1116.066,1149.056,1121.583L1150.307,1127.099" id="L_FL_AE_0" class="edge-thickness-normal edge-pattern-solid edge-thickness-normal edge-pattern-solid flowchart-link" style=";" data-edge="true" data-et="edge" data-id="L_FL_AE_0" data-points="W3sieCI6MTAzNC41MjM0Mzc1LCJ5Ijo2MzYuOTE3MjkzNzI2MTI2N30seyJ4IjoxMTQyLjgwMDc4MTI1LCJ5Ijo2NjZ9LHsieCI6MTE0Mi44MDA3ODEyNSwieSI6NzAzfSx7IngiOjExNDIuODAwNzgxMjUsInkiOjc3OX0seyJ4IjoxMTQyLjgwMDc4MTI1LCJ5Ijo4NTV9LHsieCI6MTE0Mi44MDA3ODEyNSwieSI6ODkyfSx7IngiOjExNDIuODAwNzgxMjUsInkiOjk1Nn0seyJ4IjoxMTQyLjgwMDc4MTI1LCJ5IjoxMDIwfSx7IngiOjExNDIuODAwNzgxMjUsInkiOjEwNTd9LHsieCI6MTE0Mi44MDA3ODEyNSwieSI6MTA5NH0seyJ4IjoxMTUxLjE5MTIwMDY1Nzg5NDgsInkiOjExMzF9XQ==" marker-end="url(#graph-698_flowchart-v2-pointEnd)"></path><path d="M903.557,641L903.454,645.167C903.351,649.333,903.144,657.667,903.041,668C902.938,678.333,902.938,690.667,902.938,702.333C902.938,714,902.938,725,902.938,730.5L902.938,736" id="L_FL_RE_0" class="edge-thickness-normal edge-pattern-solid edge-thickness-normal edge-pattern-solid flowchart-link" style=";" data-edge="true" data-et="edge" data-id="L_FL_RE_0" data-points="W3sieCI6OTAzLjU1NzAwNjgzNTkzNzUsInkiOjY0MX0seyJ4Ijo5MDIuOTM3NSwieSI6NjY2fSx7IngiOjkwMi45Mzc1LCJ5Ijo3MDN9LHsieCI6OTAyLjkzNzUsInkiOjc0MH1d" marker-end="url(#graph-698_flowchart-v2-pointEnd)"></path><path d="M774.523,625.876L738.112,632.563C701.701,639.251,628.878,652.625,592.466,665.479C556.055,678.333,556.055,690.667,556.055,702.333C556.055,714,556.055,725,556.055,730.5L556.055,736" id="L_FL_ML_0" class="edge-thickness-normal edge-pattern-solid edge-thickness-normal edge-pattern-solid flowchart-link" style=";" data-edge="true" data-et="edge" data-id="L_FL_ML_0" data-points="W3sieCI6Nzc0LjUyMzQzNzUsInkiOjYyNS44NzU4ODU1NzA4MDA4fSx7IngiOjU1Ni4wNTQ2ODc1LCJ5Ijo2NjZ9LHsieCI6NTU2LjA1NDY4NzUsInkiOjcwM30seyJ4Ijo1NTYuMDU0Njg3NSwieSI6NzQwfV0=" marker-end="url(#graph-698_flowchart-v2-pointEnd)"></path><path d="M902.938,818L902.938,824.167C902.938,830.333,902.938,842.667,902.938,855C902.938,867.333,902.938,879.667,836.48,894.283C770.023,908.898,637.108,925.797,570.65,934.246L504.193,942.695" id="L_RE_DA_0" class="edge-thickness-normal edge-pattern-solid edge-thickness-normal edge-pattern-solid flowchart-link" style=";" data-edge="true" data-et="edge" data-id="L_RE_DA_0" data-points="W3sieCI6OTAyLjkzNzUsInkiOjgxOH0seyJ4Ijo5MDIuOTM3NSwieSI6ODU1fSx7IngiOjkwMi45Mzc1LCJ5Ijo4OTJ9LHsieCI6NTAwLjIyNDYwOTM3NSwieSI6OTQzLjE5OTg1MTAxMDkxNDJ9XQ==" marker-end="url(#graph-698_flowchart-v2-pointEnd)"></path><path d="M556.055,818L556.055,824.167C556.055,830.333,556.055,842.667,556.055,855C556.055,867.333,556.055,879.667,541.591,891.748C527.128,903.829,498.201,915.657,483.738,921.572L469.275,927.486" id="L_ML_DA_0" class="edge-thickness-normal edge-pattern-solid edge-thickness-normal edge-pattern-solid flowchart-link" style=";" data-edge="true" data-et="edge" data-id="L_ML_DA_0" data-points="W3sieCI6NTU2LjA1NDY4NzUsInkiOjgxOH0seyJ4Ijo1NTYuMDU0Njg3NSwieSI6ODU1fSx7IngiOjU1Ni4wNTQ2ODc1LCJ5Ijo4OTJ9LHsieCI6NDY1LjU3MjQ3OTI0ODA0NjksInkiOjkyOX1d" marker-end="url(#graph-698_flowchart-v2-pointEnd)"></path><path d="M500.225,966.184L588.893,975.154C677.561,984.123,854.898,1002.061,943.566,1017.197C1032.234,1032.333,1032.234,1044.667,1032.234,1057C1032.234,1069.333,1032.234,1081.667,1086.216,1096.794C1140.198,1111.922,1248.161,1129.843,1302.143,1138.804L1356.124,1147.765" id="L_DA_RC_0" class="edge-thickness-normal edge-pattern-solid edge-thickness-normal edge-pattern-solid flowchart-link" style=";" data-edge="true" data-et="edge" data-id="L_DA_RC_0" data-points="W3sieCI6NTAwLjIyNDYwOTM3NSwieSI6OTY2LjE4NDMwMTI2ODQ1NjV9LHsieCI6MTAzMi4yMzQzNzUsInkiOjEwMjB9LHsieCI6MTAzMi4yMzQzNzUsInkiOjEwNTd9LHsieCI6MTAzMi4yMzQzNzUsInkiOjEwOTR9LHsieCI6MTM2MC4wNzAzMTI1LCJ5IjoxMTQ4LjQyMDIxNzM5NTAxMzl9XQ==" marker-end="url(#graph-698_flowchart-v2-pointEnd)"></path><path d="M301.096,929L278.61,922.833C256.125,916.667,211.154,904.333,188.669,892C166.184,879.667,166.184,867.333,166.184,848.5C166.184,829.667,166.184,804.333,166.184,779C166.184,753.667,166.184,728.333,166.184,709.5C166.184,690.667,166.184,678.333,166.184,661.5C166.184,644.667,166.184,623.333,166.184,602C166.184,580.667,166.184,559.333,166.184,542.5C166.184,525.667,166.184,513.333,166.184,501C166.184,488.667,166.184,476.333,166.184,457.5C166.184,438.667,166.184,413.333,166.184,386C166.184,358.667,166.184,329.333,195.574,307.467C224.965,285.6,283.747,271.199,313.138,263.999L342.529,256.799" id="L_DA_AG_0" class="edge-thickness-normal edge-pattern-solid edge-thickness-normal edge-pattern-solid flowchart-link" style=";" data-edge="true" data-et="edge" data-id="L_DA_AG_0" data-points="W3sieCI6MzAxLjA5NTYxMTU3MjI2NTYsInkiOjkyOX0seyJ4IjoxNjYuMTgzNTkzNzUsInkiOjg5Mn0seyJ4IjoxNjYuMTgzNTkzNzUsInkiOjg1NX0seyJ4IjoxNjYuMTgzNTkzNzUsInkiOjc3OX0seyJ4IjoxNjYuMTgzNTkzNzUsInkiOjcwM30seyJ4IjoxNjYuMTgzNTkzNzUsInkiOjY2Nn0seyJ4IjoxNjYuMTgzNTkzNzUsInkiOjYwMn0seyJ4IjoxNjYuMTgzNTkzNzUsInkiOjUzOH0seyJ4IjoxNjYuMTgzNTkzNzUsInkiOjUwMX0seyJ4IjoxNjYuMTgzNTkzNzUsInkiOjQ2NH0seyJ4IjoxNjYuMTgzNTkzNzUsInkiOjM4OH0seyJ4IjoxNjYuMTgzNTkzNzUsInkiOjMwMH0seyJ4IjozNDYuNDE0MDYyNSwieSI6MjU1Ljg0NzI5MDk1MDUyODIyfV0=" marker-end="url(#graph-698_flowchart-v2-pointEnd)"></path><path d="M346.414,197.181L316.376,190.984C286.337,184.787,226.26,172.394,196.222,160.03C166.184,147.667,166.184,135.333,195.574,121.967C224.965,108.6,283.747,94.199,313.138,86.999L342.529,79.799" id="L_AG_PG_0" class="edge-thickness-normal edge-pattern-solid edge-thickness-normal edge-pattern-solid flowchart-link" style=";" data-edge="true" data-et="edge" data-id="L_AG_PG_0" data-points="W3sieCI6MzQ2LjQxNDA2MjUsInkiOjE5Ny4xODEyMjg2NzMyMzk0fSx7IngiOjE2Ni4xODM1OTM3NSwieSI6MTYwfSx7IngiOjE2Ni4xODM1OTM3NSwieSI6MTIzfSx7IngiOjM0Ni40MTQwNjI1LCJ5Ijo3OC44NDcyOTA5NTA1MjgyMn1d" marker-end="url(#graph-698_flowchart-v2-pointEnd)"></path><path d="M355.723,929L345.714,922.833C335.705,916.667,315.688,904.333,305.679,892C295.67,879.667,295.67,867.333,295.67,848.5C295.67,829.667,295.67,804.333,295.67,779C295.67,753.667,295.67,728.333,295.67,709.5C295.67,690.667,295.67,678.333,295.67,661.5C295.67,644.667,295.67,623.333,295.67,602C295.67,580.667,295.67,559.333,295.67,542.5C295.67,525.667,295.67,513.333,295.67,501C295.67,488.667,295.67,476.333,410.738,459.559C525.806,442.784,755.943,421.568,871.011,410.96L986.079,400.352" id="L_DA_KF_0" class="edge-thickness-normal edge-pattern-solid edge-thickness-normal edge-pattern-solid flowchart-link" style=";" data-edge="true" data-et="edge" data-id="L_DA_KF_0" data-points="W3sieCI6MzU1LjcyMjY1NjI1LCJ5Ijo5Mjl9LHsieCI6Mjk1LjY2OTkyMTg3NSwieSI6ODkyfSx7IngiOjI5NS42Njk5MjE4NzUsInkiOjg1NX0seyJ4IjoyOTUuNjY5OTIxODc1LCJ5Ijo3Nzl9LHsieCI6Mjk1LjY2OTkyMTg3NSwieSI6NzAzfSx7IngiOjI5NS42Njk5MjE4NzUsInkiOjY2Nn0seyJ4IjoyOTUuNjY5OTIxODc1LCJ5Ijo2MDJ9LHsieCI6Mjk1LjY2OTkyMTg3NSwieSI6NTM4fSx7IngiOjI5NS42Njk5MjE4NzUsInkiOjUwMX0seyJ4IjoyOTUuNjY5OTIxODc1LCJ5Ijo0NjR9LHsieCI6OTkwLjA2MjUsInkiOjM5OS45ODQ1ODE0NTA4MzE0Nn1d" marker-end="url(#graph-698_flowchart-v2-pointEnd)"></path><path d="M1109.087,439L1108.19,443.167C1107.294,447.333,1105.5,455.667,1104.604,466C1103.707,476.333,1103.707,488.667,1243.888,501C1384.07,513.333,1664.432,525.667,1804.614,535.333C1944.795,545,1944.795,552,1944.795,555.5L1944.795,559" id="L_KF_CS_0" class="edge-thickness-normal edge-pattern-solid edge-thickness-normal edge-pattern-solid flowchart-link" style=";" data-edge="true" data-et="edge" data-id="L_KF_CS_0" data-points="W3sieCI6MTEwOS4wODcxMTk2NTQ2MDUyLCJ5Ijo0Mzl9LHsieCI6MTEwMy43MDcwMzEyNSwieSI6NDY0fSx7IngiOjExMDMuNzA3MDMxMjUsInkiOjUwMX0seyJ4IjoxOTQ0Ljc5NDkyMTg3NSwieSI6NTM4fSx7IngiOjE5NDQuNzk0OTIxODc1LCJ5Ijo1NjN9XQ==" marker-end="url(#graph-698_flowchart-v2-pointEnd)"></path><path d="M990.063,427.921L970.481,433.934C950.9,439.947,911.737,451.974,892.156,464.154C872.574,476.333,872.574,488.667,999.611,501C1126.648,513.333,1380.721,525.667,1507.758,535.333C1634.795,545,1634.795,552,1634.795,555.5L1634.795,559" id="L_KF_ICE_0" class="edge-thickness-normal edge-pattern-solid edge-thickness-normal edge-pattern-solid flowchart-link" style=";" data-edge="true" data-et="edge" data-id="L_KF_ICE_0" data-points="W3sieCI6OTkwLjA2MjUsInkiOjQyNy45MjEwODIxMjE5NDM5fSx7IngiOjg3Mi41NzQyMTg3NSwieSI6NDY0fSx7IngiOjg3Mi41NzQyMTg3NSwieSI6NTAxfSx7IngiOjE2MzQuNzk0OTIxODc1LCJ5Ijo1Mzh9LHsieCI6MTYzNC43OTQ5MjE4NzUsInkiOjU2M31d" marker-end="url(#graph-698_flowchart-v2-pointEnd)"></path><path d="M500.225,975.597L538.244,982.998C576.263,990.398,652.301,1005.199,690.321,1018.766C728.34,1032.333,728.34,1044.667,728.34,1057C728.34,1069.333,728.34,1081.667,728.34,1095.333C728.34,1109,728.34,1124,728.34,1131.5L728.34,1139" id="L_DA_MFA_0" class="edge-thickness-normal edge-pattern-solid edge-thickness-normal edge-pattern-solid flowchart-link" style=";" data-edge="true" data-et="edge" data-id="L_DA_MFA_0" data-points="W3sieCI6NTAwLjIyNDYwOTM3NSwieSI6OTc1LjU5NzMyMjEzMzk3NjV9LHsieCI6NzI4LjMzOTg0Mzc1LCJ5IjoxMDIwfSx7IngiOjcyOC4zMzk4NDM3NSwieSI6MTA1N30seyJ4Ijo3MjguMzM5ODQzNzUsInkiOjEwOTR9LHsieCI6NzI4LjMzOTg0Mzc1LCJ5IjoxMTQzfV0=" marker-end="url(#graph-698_flowchart-v2-pointEnd)"></path><path d="M425.509,983L431.439,989.167C437.369,995.333,449.23,1007.667,455.16,1020C461.09,1032.333,461.09,1044.667,461.09,1057C461.09,1069.333,461.09,1081.667,461.09,1095.333C461.09,1109,461.09,1124,461.09,1131.5L461.09,1139" id="L_DA_RV_0" class="edge-thickness-normal edge-pattern-solid edge-thickness-normal edge-pattern-solid flowchart-link" style=";" data-edge="true" data-et="edge" data-id="L_DA_RV_0" data-points="W3sieCI6NDI1LjUwOTE4NTc5MTAxNTYsInkiOjk4M30seyJ4Ijo0NjEuMDg5ODQzNzUsInkiOjEwMjB9LHsieCI6NDYxLjA4OTg0Mzc1LCJ5IjoxMDU3fSx7IngiOjQ2MS4wODk4NDM3NSwieSI6MTA5NH0seyJ4Ijo0NjEuMDg5ODQzNzUsInkiOjExNDN9XQ==" marker-end="url(#graph-698_flowchart-v2-pointEnd)"></path><path d="M303.971,983L282.143,989.167C260.314,995.333,216.657,1007.667,194.829,1020C173,1032.333,173,1044.667,173,1057C173,1069.333,173,1081.667,173,1093.333C173,1105,173,1116,173,1121.5L173,1127" id="L_DA_JG_0" class="edge-thickness-normal edge-pattern-solid edge-thickness-normal edge-pattern-solid flowchart-link" style=";" data-edge="true" data-et="edge" data-id="L_DA_JG_0" data-points="W3sieCI6MzAzLjk3MTI4Mjk1ODk4NDQsInkiOjk4M30seyJ4IjoxNzMsInkiOjEwMjB9LHsieCI6MTczLCJ5IjoxMDU3fSx7IngiOjE3MywieSI6MTA5NH0seyJ4IjoxNzMsInkiOjExMzF9XQ==" marker-end="url(#graph-698_flowchart-v2-pointEnd)"></path><path d="M1685.428,995L1690.837,999.167C1696.247,1003.333,1707.066,1011.667,1712.475,1022C1717.885,1032.333,1717.885,1044.667,1717.885,1057C1717.885,1069.333,1717.885,1081.667,1702.215,1093.061C1686.545,1104.455,1655.205,1114.91,1639.535,1120.138L1623.865,1125.366" id="L_SP_RC_0" class="edge-thickness-normal edge-pattern-solid edge-thickness-normal edge-pattern-solid flowchart-link" style=";" data-edge="true" data-et="edge" data-id="L_SP_RC_0" data-points="W3sieCI6MTY4NS40Mjc3OTU0MTAxNTYyLCJ5Ijo5OTV9LHsieCI6MTcxNy44ODQ3NjU2MjUsInkiOjEwMjB9LHsieCI6MTcxNy44ODQ3NjU2MjUsInkiOjEwNTd9LHsieCI6MTcxNy44ODQ3NjU2MjUsInkiOjEwOTR9LHsieCI6MTYyMC4wNzAzMTI1LCJ5IjoxMTI2LjYzMTM3MzE4NzgxNTZ9XQ==" marker-end="url(#graph-698_flowchart-v2-pointEnd)"></path><path d="M1593.838,995L1589.463,999.167C1585.087,1003.333,1576.335,1011.667,1571.96,1022C1567.584,1032.333,1567.584,1044.667,1567.584,1057C1567.584,1069.333,1567.584,1081.667,1525.32,1095.715C1483.057,1109.763,1398.53,1125.525,1356.266,1133.407L1314.003,1141.288" id="L_SP_AE_0" class="edge-thickness-normal edge-pattern-solid edge-thickness-normal edge-pattern-solid flowchart-link" style=";" data-edge="true" data-et="edge" data-id="L_SP_AE_0" data-points="W3sieCI6MTU5My44MzgyNTY4MzU5Mzc1LCJ5Ijo5OTV9LHsieCI6MTU2Ny41ODM5ODQzNzUsInkiOjEwMjB9LHsieCI6MTU2Ny41ODM5ODQzNzUsInkiOjEwNTd9LHsieCI6MTU2Ny41ODM5ODQzNzUsInkiOjEwOTR9LHsieCI6MTMxMC4wNzAzMTI1LCJ5IjoxMTQyLjAyMTMzNTYzMzY3MTJ9XQ==" marker-end="url(#graph-698_flowchart-v2-pointEnd)"></path><path d="M1944.795,995L1944.795,999.167C1944.795,1003.333,1944.795,1011.667,1944.795,1022C1944.795,1032.333,1944.795,1044.667,1944.795,1057C1944.795,1069.333,1944.795,1081.667,1891.332,1096.769C1837.868,1111.871,1730.942,1129.742,1677.479,1138.678L1624.016,1147.613" id="L_GR_RC_0" class="edge-thickness-normal edge-pattern-solid edge-thickness-normal edge-pattern-solid flowchart-link" style=";" data-edge="true" data-et="edge" data-id="L_GR_RC_0" data-points="W3sieCI6MTk0NC43OTQ5MjE4NzUsInkiOjk5NX0seyJ4IjoxOTQ0Ljc5NDkyMTg3NSwieSI6MTAyMH0seyJ4IjoxOTQ0Ljc5NDkyMTg3NSwieSI6MTA1N30seyJ4IjoxOTQ0Ljc5NDkyMTg3NSwieSI6MTA5NH0seyJ4IjoxNjIwLjA3MDMxMjUsInkiOjExNDguMjcyNTYzNjY1MzM2NX1d" marker-end="url(#graph-698_flowchart-v2-pointEnd)"></path><path d="M1634.795,641L1634.795,645.167C1634.795,649.333,1634.795,657.667,1634.795,668C1634.795,678.333,1634.795,690.667,1634.795,709.5C1634.795,728.333,1634.795,753.667,1634.795,779C1634.795,804.333,1634.795,829.667,1634.795,848.5C1634.795,867.333,1634.795,879.667,1634.795,889.333C1634.795,899,1634.795,906,1634.795,909.5L1634.795,913" id="L_ICE_SP_0" class="edge-thickness-normal edge-pattern-solid edge-thickness-normal edge-pattern-solid flowchart-link" style=";" data-edge="true" data-et="edge" data-id="L_ICE_SP_0" data-points="W3sieCI6MTYzNC43OTQ5MjE4NzUsInkiOjY0MX0seyJ4IjoxNjM0Ljc5NDkyMTg3NSwieSI6NjY2fSx7IngiOjE2MzQuNzk0OTIxODc1LCJ5Ijo3MDN9LHsieCI6MTYzNC43OTQ5MjE4NzUsInkiOjc3OX0seyJ4IjoxNjM0Ljc5NDkyMTg3NSwieSI6ODU1fSx7IngiOjE2MzQuNzk0OTIxODc1LCJ5Ijo4OTJ9LHsieCI6MTYzNC43OTQ5MjE4NzUsInkiOjkxN31d" marker-end="url(#graph-698_flowchart-v2-pointEnd)"></path></g><g class="edgeLabels"><g class="edgeLabel" transform="translate(1221.078125, 123)"><g class="label" data-id="L_PG_AG_0" transform="translate(-81, -12)"><foreignObject width="162" height="24"><div xmlns="http://www.w3.org/1999/xhtml" class="labelBkg" style="display: table-cell; white-space: nowrap; line-height: 1.5; max-width: 200px; text-align: center;"><span class="edgeLabel"><p>HTTPS POST /evaluate</p></span></div></foreignObject></g></g><g class="edgeLabel" transform="translate(1120.0625, 300)"><g class="label" data-id="L_AG_KF_0" transform="translate(-76.11328125, -12)"><foreignObject width="152.2265625" height="24"><div xmlns="http://www.w3.org/1999/xhtml" class="labelBkg" style="display: table-cell; white-space: nowrap; line-height: 1.5; max-width: 200px; text-align: center;"><span class="edgeLabel"><p>produce (fire+forget)</p></span></div></foreignObject></g></g><g class="edgeLabel" transform="translate(1395.7265625, 501)"><g class="label" data-id="L_KF_FL_0" transform="translate(-31.23828125, -12)"><foreignObject width="62.4765625" height="24"><div xmlns="http://www.w3.org/1999/xhtml" class="labelBkg" style="display: table-cell; white-space: nowrap; line-height: 1.5; max-width: 200px; text-align: center;"><span class="edgeLabel"><p>consume</p></span></div></foreignObject></g></g><g class="edgeLabel" transform="translate(1371.451171875, 855)"><g class="label" data-id="L_FL_RC_0" transform="translate(-53.6328125, -12)"><foreignObject width="107.265625" height="24"><div xmlns="http://www.w3.org/1999/xhtml" class="labelBkg" style="display: table-cell; white-space: nowrap; line-height: 1.5; max-width: 200px; text-align: center;"><span class="edgeLabel"><p>parallel lookup</p></span></div></foreignObject></g></g><g class="edgeLabel" transform="translate(1142.80078125, 855)"><g class="label" data-id="L_FL_AE_0" transform="translate(-53.6328125, -12)"><foreignObject width="107.265625" height="24"><div xmlns="http://www.w3.org/1999/xhtml" class="labelBkg" style="display: table-cell; white-space: nowrap; line-height: 1.5; max-width: 200px; text-align: center;"><span class="edgeLabel"><p>parallel lookup</p></span></div></foreignObject></g></g><g class="edgeLabel" transform="translate(902.9375, 703)"><g class="label" data-id="L_FL_RE_0" transform="translate(-53.875, -12)"><foreignObject width="107.75" height="24"><div xmlns="http://www.w3.org/1999/xhtml" class="labelBkg" style="display: table-cell; white-space: nowrap; line-height: 1.5; max-width: 200px; text-align: center;"><span class="edgeLabel"><p>enriched event</p></span></div></foreignObject></g></g><g class="edgeLabel" transform="translate(556.0546875, 703)"><g class="label" data-id="L_FL_ML_0" transform="translate(-53.875, -12)"><foreignObject width="107.75" height="24"><div xmlns="http://www.w3.org/1999/xhtml" class="labelBkg" style="display: table-cell; white-space: nowrap; line-height: 1.5; max-width: 200px; text-align: center;"><span class="edgeLabel"><p>enriched event</p></span></div></foreignObject></g></g><g class="edgeLabel" transform="translate(902.9375, 855)"><g class="label" data-id="L_RE_DA_0" transform="translate(-37.2265625, -12)"><foreignObject width="74.453125" height="24"><div xmlns="http://www.w3.org/1999/xhtml" class="labelBkg" style="display: table-cell; white-space: nowrap; line-height: 1.5; max-width: 200px; text-align: center;"><span class="edgeLabel"><p>rule result</p></span></div></foreignObject></g></g><g class="edgeLabel" transform="translate(556.0546875, 855)"><g class="label" data-id="L_ML_DA_0" transform="translate(-40.47265625, -12)"><foreignObject width="80.9453125" height="24"><div xmlns="http://www.w3.org/1999/xhtml" class="labelBkg" style="display: table-cell; white-space: nowrap; line-height: 1.5; max-width: 200px; text-align: center;"><span class="edgeLabel"><p>fraud score</p></span></div></foreignObject></g></g><g class="edgeLabel" transform="translate(1032.234375, 1057)"><g class="label" data-id="L_DA_RC_0" transform="translate(-90.56640625, -12)"><foreignObject width="181.1328125" height="24"><div xmlns="http://www.w3.org/1999/xhtml" class="labelBkg" style="display: table-cell; white-space: nowrap; line-height: 1.5; max-width: 200px; text-align: center;"><span class="edgeLabel"><p>fraud_flag write (WAIT 1)</p></span></div></foreignObject></g></g><g class="edgeLabel" transform="translate(166.18359375, 602)"><g class="label" data-id="L_DA_AG_0" transform="translate(-70.609375, -12)"><foreignObject width="141.21875" height="24"><div xmlns="http://www.w3.org/1999/xhtml" class="labelBkg" style="display: table-cell; white-space: nowrap; line-height: 1.5; max-width: 200px; text-align: center;"><span class="edgeLabel"><p>sync HTTP response</p></span></div></foreignObject></g></g><g class="edgeLabel" transform="translate(166.18359375, 123)"><g class="label" data-id="L_AG_PG_0" transform="translate(-104.83203125, -12)"><foreignObject width="209.6640625" height="24"><div xmlns="http://www.w3.org/1999/xhtml" class="labelBkg" style="display: table; white-space: break-spaces; line-height: 1.5; max-width: 200px; text-align: center; width: 200px;"><span class="edgeLabel"><p>APPROVE/DENY/MFA/REVIEW</p></span></div></foreignObject></g></g><g class="edgeLabel" transform="translate(295.669921875, 703)"><g class="label" data-id="L_DA_KF_0" transform="translate(-73.97265625, -12)"><foreignObject width="147.9453125" height="24"><div xmlns="http://www.w3.org/1999/xhtml" class="labelBkg" style="display: table-cell; white-space: nowrap; line-height: 1.5; max-width: 200px; text-align: center;"><span class="edgeLabel"><p>async decision event</p></span></div></foreignObject></g></g><g class="edgeLabel" transform="translate(1103.70703125, 501)"><g class="label" data-id="L_KF_CS_0" transform="translate(-66.1328125, -12)"><foreignObject width="132.265625" height="24"><div xmlns="http://www.w3.org/1999/xhtml" class="labelBkg" style="display: table-cell; white-space: nowrap; line-height: 1.5; max-width: 200px; text-align: center;"><span class="edgeLabel"><p>consume decisions</p></span></div></foreignObject></g></g><g class="edgeLabel" transform="translate(872.57421875, 501)"><g class="label" data-id="L_KF_ICE_0" transform="translate(-66.1328125, -12)"><foreignObject width="132.265625" height="24"><div xmlns="http://www.w3.org/1999/xhtml" class="labelBkg" style="display: table-cell; white-space: nowrap; line-height: 1.5; max-width: 200px; text-align: center;"><span class="edgeLabel"><p>consume decisions</p></span></div></foreignObject></g></g><g class="edgeLabel" transform="translate(728.33984375, 1057)"><g class="label" data-id="L_DA_MFA_0" transform="translate(-39.78125, -12)"><foreignObject width="79.5625" height="24"><div xmlns="http://www.w3.org/1999/xhtml" class="labelBkg" style="display: table-cell; white-space: nowrap; line-height: 1.5; max-width: 200px; text-align: center;"><span class="edgeLabel"><p>MFA trigger</p></span></div></foreignObject></g></g><g class="edgeLabel" transform="translate(461.08984375, 1057)"><g class="label" data-id="L_DA_RV_0" transform="translate(-53.4453125, -12)"><foreignObject width="106.890625" height="24"><div xmlns="http://www.w3.org/1999/xhtml" class="labelBkg" style="display: table-cell; white-space: nowrap; line-height: 1.5; max-width: 200px; text-align: center;"><span class="edgeLabel"><p>REVIEW trigger</p></span></div></foreignObject></g></g><g class="edgeLabel" transform="translate(173, 1057)"><g class="label" data-id="L_DA_JG_0" transform="translate(-77.4765625, -12)"><foreignObject width="154.953125" height="24"><div xmlns="http://www.w3.org/1999/xhtml" class="labelBkg" style="display: table-cell; white-space: nowrap; line-height: 1.5; max-width: 200px; text-align: center;"><span class="edgeLabel"><p>async BFS (score&gt;0.7)</p></span></div></foreignObject></g></g><g class="edgeLabel" transform="translate(1717.884765625, 1057)"><g class="label" data-id="L_SP_RC_0" transform="translate(-57.2109375, -12)"><foreignObject width="114.421875" height="24"><div xmlns="http://www.w3.org/1999/xhtml" class="labelBkg" style="display: table-cell; white-space: nowrap; line-height: 1.5; max-width: 200px; text-align: center;"><span class="edgeLabel"><p>update features</p></span></div></foreignObject></g></g><g class="edgeLabel" transform="translate(1567.583984375, 1057)"><g class="label" data-id="L_SP_AE_0" transform="translate(-57.2109375, -12)"><foreignObject width="114.421875" height="24"><div xmlns="http://www.w3.org/1999/xhtml" class="labelBkg" style="display: table-cell; white-space: nowrap; line-height: 1.5; max-width: 200px; text-align: center;"><span class="edgeLabel"><p>update features</p></span></div></foreignObject></g></g><g class="edgeLabel" transform="translate(1944.794921875, 1057)"><g class="label" data-id="L_GR_RC_0" transform="translate(-66.609375, -12)"><foreignObject width="133.21875" height="24"><div xmlns="http://www.w3.org/1999/xhtml" class="labelBkg" style="display: table-cell; white-space: nowrap; line-height: 1.5; max-width: 200px; text-align: center;"><span class="edgeLabel"><p>graph_fraud_score</p></span></div></foreignObject></g></g><g class="edgeLabel" transform="translate(1634.794921875, 779)"><g class="label" data-id="L_ICE_SP_0" transform="translate(-46.25, -12)"><foreignObject width="92.5" height="24"><div xmlns="http://www.w3.org/1999/xhtml" class="labelBkg" style="display: table-cell; white-space: nowrap; line-height: 1.5; max-width: 200px; text-align: center;"><span class="edgeLabel"><p>training data</p></span></div></foreignObject></g></g></g><g class="nodes"><g class="node default" id="flowchart-PG-0" transform="translate(476.4140625, 47)"><rect class="basic label-container" style="" x="-130" y="-39" width="260" height="78"></rect><g class="label" style="" transform="translate(-100, -24)"><rect></rect><foreignObject width="200" height="48"><div xmlns="http://www.w3.org/1999/xhtml" style="display: table; white-space: break-spaces; line-height: 1.5; max-width: 200px; text-align: center; width: 200px;"><span class="nodeLabel"><p>Payment Gateway\n(external)</p></span></div></foreignObject></g></g><g class="node default" id="flowchart-AG-1" transform="translate(476.4140625, 224)"><rect class="basic label-container" style="" x="-130" y="-39" width="260" height="78"></rect><g class="label" style="" transform="translate(-100, -24)"><rect></rect><foreignObject width="200" height="48"><div xmlns="http://www.w3.org/1999/xhtml" style="display: table; white-space: break-spaces; line-height: 1.5; max-width: 200px; text-align: center; width: 200px;"><span class="nodeLabel"><p>Decision API Gateway\n(Envoy + mTLS)</p></span></div></foreignObject></g></g><g class="node default" id="flowchart-KF-2" transform="translate(1120.0625, 388)"><rect class="basic label-container" style="" x="-130" y="-51" width="260" height="102"></rect><g class="label" style="" transform="translate(-100, -36)"><rect></rect><foreignObject width="200" height="72"><div xmlns="http://www.w3.org/1999/xhtml" style="display: table; white-space: break-spaces; line-height: 1.5; max-width: 200px; text-align: center; width: 200px;"><span class="nodeLabel"><p>Kafka Cluster\n(partitioned by user_id)</p></span></div></foreignObject></g></g><g class="node default" id="flowchart-FL-3" transform="translate(904.5234375, 602)"><rect class="basic label-container" style="" x="-130" y="-39" width="260" height="78"></rect><g class="label" style="" transform="translate(-100, -24)"><rect></rect><foreignObject width="200" height="48"><div xmlns="http://www.w3.org/1999/xhtml" style="display: table; white-space: break-spaces; line-height: 1.5; max-width: 200px; text-align: center; width: 200px;"><span class="nodeLabel"><p>Flink Enrichment Job\n(async I/O)</p></span></div></foreignObject></g></g><g class="node default" id="flowchart-RE-4" transform="translate(902.9375, 779)"><rect class="basic label-container" style="" x="-130" y="-39" width="260" height="78"></rect><g class="label" style="" transform="translate(-100, -24)"><rect></rect><foreignObject width="200" height="48"><div xmlns="http://www.w3.org/1999/xhtml" style="display: table; white-space: break-spaces; line-height: 1.5; max-width: 200px; text-align: center; width: 200px;"><span class="nodeLabel"><p>Rules Engine\n(Drools / custom DSL)</p></span></div></foreignObject></g></g><g class="node default" id="flowchart-ML-5" transform="translate(556.0546875, 779)"><rect class="basic label-container" style="" x="-130" y="-39" width="260" height="78"></rect><g class="label" style="" transform="translate(-100, -24)"><rect></rect><foreignObject width="200" height="48"><div xmlns="http://www.w3.org/1999/xhtml" style="display: table; white-space: break-spaces; line-height: 1.5; max-width: 200px; text-align: center; width: 200px;"><span class="nodeLabel"><p>ML Inference\n(Triton + ONNX XGBoost)</p></span></div></foreignObject></g></g><g class="node default" id="flowchart-DA-6" transform="translate(399.544921875, 956)"><rect class="basic label-container" style="" x="-100.6796875" y="-27" width="201.359375" height="54"></rect><g class="label" style="" transform="translate(-70.6796875, -12)"><rect></rect><foreignObject width="141.359375" height="24"><div xmlns="http://www.w3.org/1999/xhtml" style="display: table-cell; white-space: nowrap; line-height: 1.5; max-width: 200px; text-align: center;"><span class="nodeLabel"><p>Decision Aggregator</p></span></div></foreignObject></g></g><g class="node default" id="flowchart-RC-7" transform="translate(1490.0703125, 1170)"><rect class="basic label-container" style="" x="-130" y="-51" width="260" height="102"></rect><g class="label" style="" transform="translate(-100, -36)"><rect></rect><foreignObject width="200" height="72"><div xmlns="http://www.w3.org/1999/xhtml" style="display: table; white-space: break-spaces; line-height: 1.5; max-width: 200px; text-align: center; width: 200px;"><span class="nodeLabel"><p>Redis Cluster\n(user features, fraud flags\nvelocity counters)</p></span></div></foreignObject></g></g><g class="node default" id="flowchart-AE-8" transform="translate(1160.03515625, 1170)"><rect class="basic label-container" style="" x="-150.03515625" y="-39" width="300.0703125" height="78"></rect><g class="label" style="" transform="translate(-120.03515625, -24)"><rect></rect><foreignObject width="240.0703125" height="48"><div xmlns="http://www.w3.org/1999/xhtml" style="display: table; white-space: break-spaces; line-height: 1.5; max-width: 200px; text-align: center; width: 200px;"><span class="nodeLabel"><p>Aerospike\n(device/IP/merchant data)</p></span></div></foreignObject></g></g><g class="node default" id="flowchart-CS-9" transform="translate(1944.794921875, 602)"><rect class="basic label-container" style="" x="-130" y="-39" width="260" height="78"></rect><g class="label" style="" transform="translate(-100, -24)"><rect></rect><foreignObject width="200" height="48"><div xmlns="http://www.w3.org/1999/xhtml" style="display: table; white-space: break-spaces; line-height: 1.5; max-width: 200px; text-align: center; width: 200px;"><span class="nodeLabel"><p>Cassandra\n(decision audit, 7yr)</p></span></div></foreignObject></g></g><g class="node default" id="flowchart-ICE-10" transform="translate(1634.794921875, 602)"><rect class="basic label-container" style="" x="-130" y="-39" width="260" height="78"></rect><g class="label" style="" transform="translate(-100, -24)"><rect></rect><foreignObject width="200" height="48"><div xmlns="http://www.w3.org/1999/xhtml" style="display: table; white-space: break-spaces; line-height: 1.5; max-width: 200px; text-align: center; width: 200px;"><span class="nodeLabel"><p>Iceberg on S3\n(raw events + decisions)</p></span></div></foreignObject></g></g><g class="node default" id="flowchart-SP-11" transform="translate(1634.794921875, 956)"><rect class="basic label-container" style="" x="-130" y="-39" width="260" height="78"></rect><g class="label" style="" transform="translate(-100, -24)"><rect></rect><foreignObject width="200" height="48"><div xmlns="http://www.w3.org/1999/xhtml" style="display: table; white-space: break-spaces; line-height: 1.5; max-width: 200px; text-align: center; width: 200px;"><span class="nodeLabel"><p>Spark Batch\n(feature engineering)</p></span></div></foreignObject></g></g><g class="node default" id="flowchart-GR-12" transform="translate(1944.794921875, 956)"><rect class="basic label-container" style="" x="-130" y="-39" width="260" height="78"></rect><g class="label" style="" transform="translate(-100, -24)"><rect></rect><foreignObject width="200" height="48"><div xmlns="http://www.w3.org/1999/xhtml" style="display: table; white-space: break-spaces; line-height: 1.5; max-width: 200px; text-align: center; width: 200px;"><span class="nodeLabel"><p>Graph Compute\n(Spark GraphX / PyG)</p></span></div></foreignObject></g></g><g class="node default" id="flowchart-MFA-13" transform="translate(728.33984375, 1170)"><rect class="basic label-container" style="" x="-109.16015625" y="-27" width="218.3203125" height="54"></rect><g class="label" style="" transform="translate(-79.16015625, -12)"><rect></rect><foreignObject width="158.3203125" height="24"><div xmlns="http://www.w3.org/1999/xhtml" style="display: table-cell; white-space: nowrap; line-height: 1.5; max-width: 200px; text-align: center;"><span class="nodeLabel"><p>MFA Challenge Service</p></span></div></foreignObject></g></g><g class="node default" id="flowchart-RV-14" transform="translate(461.08984375, 1170)"><rect class="basic label-container" style="" x="-108.08984375" y="-27" width="216.1796875" height="54"></rect><g class="label" style="" transform="translate(-78.08984375, -12)"><rect></rect><foreignObject width="156.1796875" height="24"><div xmlns="http://www.w3.org/1999/xhtml" style="display: table-cell; white-space: nowrap; line-height: 1.5; max-width: 200px; text-align: center;"><span class="nodeLabel"><p>Manual Review Queue</p></span></div></foreignObject></g></g><g class="node default" id="flowchart-JG-15" transform="translate(173, 1170)"><rect class="basic label-container" style="" x="-130" y="-39" width="260" height="78"></rect><g class="label" style="" transform="translate(-100, -24)"><rect></rect><foreignObject width="200" height="48"><div xmlns="http://www.w3.org/1999/xhtml" style="display: table; white-space: break-spaces; line-height: 1.5; max-width: 200px; text-align: center; width: 200px;"><span class="nodeLabel"><p>JanusGraph\n(async BFS for fraud rings)</p></span></div></foreignObject></g></g></g></g></g></g></svg>